<?xml version="1.0" standalone="no"?><!DOCTYPE svg PUBLIC "-//W3C//DTD SVG 1.1//EN" "http://www.w3.org/Graphics/SVG/1.1/DTD/svg11.dtd"><svg t="1722502743276" class="icon" viewBox="0 0 1024 1024" version="1.1" xmlns="http://www.w3.org/2000/svg" p-id="1537" xmlns:xlink="http://www.w3.org/1999/xlink" width="200" height="200"><path d="M512 128a384 384 0 1 0 0 768A384 384 0 0 0 512 128zM42.688 512a469.312 469.312 0 1 1 938.624 0A469.312 469.312 0 0 1 42.688 512zM512 298.688c23.552 0 42.688 19.072 42.688 42.624v128h128a42.688 42.688 0 1 1 0 85.376h-128v128a42.688 42.688 0 1 1-85.376 0v-128h-128a42.688 42.688 0 0 1 0-85.376h128v-128c0-23.552 19.136-42.624 42.688-42.624z" fill="#000000" p-id="1538"></path></svg>