<?xml version="1.0" standalone="no"?><!DOCTYPE svg PUBLIC "-//W3C//DTD SVG 1.1//EN" "http://www.w3.org/Graphics/SVG/1.1/DTD/svg11.dtd"><svg t="1722664057809" class="icon" viewBox="0 0 1024 1024" version="1.1" xmlns="http://www.w3.org/2000/svg" p-id="1514" xmlns:xlink="http://www.w3.org/1999/xlink" width="200" height="200"><path d="M981.333333 512c0 272.469333-369.237333 464.384-452.693333 504.32a37.973333 37.973333 0 0 1-33.28 0C411.904 976.384 42.666667 784.469333 42.666667 512V184.533333a42.666667 42.666667 0 0 1 29.397333-40.533333l426.666667-139.648a42.666667 42.666667 0 0 1 26.538666 0l426.666667 139.648a42.666667 42.666667 0 0 1 29.397333 40.533333V512zM414.165333 449.536a42.666667 42.666667 0 1 0-60.330666 60.330667l90.496 90.496a42.666667 42.666667 0 0 0 60.373333 0l180.992-181.034667a42.666667 42.666667 0 0 0-60.330667-60.330667l-150.869333 150.869334-60.330667-60.330667z" p-id="1515"></path></svg>